<?xml version="1.0" encoding="UTF-8"?>
<svg width="50px" height="50px" viewBox="0 0 50 50" version="1.1" xmlns="http://www.w3.org/2000/svg" xmlns:xlink="http://www.w3.org/1999/xlink">
    <g stroke="none" stroke-width="1" fill="none" fill-rule="evenodd">
        <g fill="#FFFFFF">
            <path d="M25,0 C38.8071187,0 50,11.1928813 50,25 C50,38.8071187 38.8071187,50 25,50 C11.1928813,50 0,38.8071187 0,25 C0,11.1928813 11.1928813,0 25,0 Z M32.9253942,12 C28.8475293,12 25.5402096,15.2780969 25.5402096,19.3230736 C25.5402096,19.8950905 25.6068,20.4513927 25.7304677,20.9888371 C19.5898881,20.6823995 14.1500925,17.7673133 10.5066502,13.3388967 C9.87245662,14.4232145 9.5077953,15.6803945 9.5077953,17.0192912 C9.5077953,19.5587948 10.8126486,21.8012897 12.7929182,23.1134713 C11.5816084,23.0741845 10.4432309,22.7457462 9.4475469,22.1973014 L9.4475469,22.2915899 C9.4475469,25.838409 11.9922487,28.7974965 15.3725007,29.4700878 C14.7509909,29.6366641 14.099357,29.7246667 13.4271118,29.7246667 C12.9514666,29.7246667 12.4869198,29.6806654 12.0366423,29.5958058 C12.9768343,32.5030346 15.7038668,34.6213829 18.9366687,34.677956 C16.4078217,36.6422998 13.2225843,37.8130487 9.76305822,37.8130487 C9.16691623,37.8130487 8.57870166,37.7784762 8,37.7109028 C11.269268,39.7899642 15.1505329,41 19.3203559,41 C32.9079538,41 40.3359464,29.8456703 40.3359464,20.1716701 C40.3359464,19.8573751 40.328019,19.5399371 40.3137497,19.2256421 C41.7565401,18.1916116 43.0090725,16.9045735 43.996829,15.4383873 L44,15.4336729 C42.6761208,16.0151187 41.2539417,16.4079874 39.7588303,16.5855641 C41.2840659,15.6803945 42.4541531,14.2440663 43.0059015,12.5343015 C41.5789659,13.3734692 39.9982384,13.9832015 38.3160398,14.3100683 C36.9683784,12.8894549 35.0499427,12 32.9253942,12 Z"></path>
        </g>
    </g>
</svg>